; Drill file
; Format: 2.4 (00.0000)
M48
INCH
T01C0.0197
T02C0.0236
T03C0.0283
T04C0.0315
T05C0.0354
T06C0.0984
%
G05
G90
T01
X012250Y003500
X014750Y019000
X014750Y020000
X014750Y021000
X014750Y022000
X014750Y023000
X014750Y024000
X014750Y025000
X014750Y026000
X014750Y027000
X021000Y029500
X025500Y027500
X030750Y005000
T02
X009000Y000750
X010000Y000750
X012500Y000250
X014750Y000000
X016250Y000000
X016250Y002000
X014750Y002000
X008250Y013500
X009250Y016000
X011250Y016000
X010750Y030500
X009000Y031500
X022000Y033250
X022000Y035250
X036500Y027500
X037250Y024250
X037250Y022250
X031250Y019000
X029250Y019000
X041250Y012000
X041250Y010000
X043000Y010000
X043500Y008750
X043500Y005750
X043500Y004500
X043500Y001500
X043500Y000000
X045410Y000000
X041250Y-000500
X039250Y-000500
X043000Y013000
T03
X010000Y004500
X010000Y005500
X010000Y006500
X010000Y007500
X010000Y008500
X010000Y009500
X010000Y010500
X010000Y011500
X010000Y012500
X010000Y013500
X013000Y013500
X013000Y012500
X013000Y011500
X013000Y010500
X013000Y009500
X013000Y008500
X013000Y007500
X013000Y006500
X013000Y005500
X013000Y004500
X018500Y006500
X019500Y006500
X020500Y006500
X021500Y006500
X022500Y006500
X023500Y006500
X024500Y006500
X025500Y006500
X026500Y006500
X027500Y006500
X028500Y006500
X029500Y006500
X028750Y009000
X027750Y009000
X026750Y009000
X025750Y009000
X024750Y009000
X023750Y009000
X022750Y009000
X022750Y012000
X023750Y012000
X024750Y012000
X025750Y012000
X026750Y012000
X027750Y012000
X028750Y012000
X028750Y014250
X027750Y014250
X026750Y014250
X025750Y014250
X024750Y014250
X023750Y014250
X022750Y014250
X022750Y017250
X023750Y017250
X024750Y017250
X025750Y017250
X026750Y017250
X027750Y017250
X028750Y017250
X032000Y017250
X033000Y017250
X034000Y017250
X035000Y017250
X036000Y017250
X037000Y017250
X038000Y017250
X039000Y017250
X039000Y014250
X038000Y014250
X037000Y014250
X036000Y014250
X035000Y014250
X034000Y014250
X033000Y014250
X032000Y014250
X032000Y012000
X033000Y012000
X034000Y012000
X035000Y012000
X036000Y012000
X037000Y012000
X038000Y012000
X039000Y012000
X039000Y009000
X038000Y009000
X037000Y009000
X036000Y009000
X035000Y009000
X034000Y009000
X033000Y009000
X032000Y009000
X034250Y007500
X034250Y006500
X034250Y005500
X034250Y004500
X034250Y003500
X034250Y002500
X034250Y001500
X034250Y000500
X037250Y000500
X037250Y001500
X037250Y002500
X037250Y003500
X037250Y004500
X037250Y005500
X037250Y006500
X037250Y007500
X038750Y007500
X038750Y006500
X038750Y005500
X038750Y004500
X038750Y003500
X038750Y002500
X038750Y001500
X041750Y001500
X041750Y002500
X041750Y003500
X041750Y004500
X041750Y005500
X041750Y006500
X041750Y007500
X029500Y000500
X028500Y000500
X027500Y000500
X026500Y000500
X025500Y000500
X024500Y000500
X023500Y000500
X022500Y000500
X021500Y000500
X020500Y000500
X019500Y000500
X018500Y000500
X012750Y018000
X012750Y019000
X012750Y020000
X012750Y021000
X012750Y022000
X012750Y023000
X012750Y024000
X012750Y025000
X012750Y026000
X012750Y027000
X009750Y027000
X009750Y026000
X009750Y025000
X009750Y024000
X009750Y023000
X009750Y022000
X009750Y021000
X009750Y020000
X009750Y019000
X009750Y018000
X018000Y019000
X018000Y020000
X018000Y021000
X018000Y022000
X018000Y023000
X018000Y024000
X018000Y025000
X018000Y026000
X021000Y026000
X021000Y025000
X021000Y024000
X021000Y023000
X021000Y022000
X021000Y021000
X021000Y020000
X021000Y019000
X024500Y020500
X025500Y020500
X026500Y020500
X027500Y020500
X028500Y020500
X029500Y020500
X030500Y020500
X031500Y020500
X032500Y020500
X033500Y020500
X034500Y020500
X035500Y020500
X035500Y026500
X034500Y026500
X033500Y026500
X032500Y026500
X031500Y026500
X030500Y026500
X029500Y026500
X028500Y026500
X027500Y026500
X026500Y026500
X025500Y026500
X024500Y026500
X024500Y032500
X025500Y032500
X026500Y032500
X027500Y032500
X028500Y032500
X029500Y032500
X030500Y032500
X030500Y035500
X029500Y035500
X028500Y035500
X027500Y035500
X026500Y035500
X025500Y035500
X024500Y035500
X019500Y035500
X018500Y035500
X017500Y035500
X016500Y035500
X015500Y035500
X014500Y035500
X013500Y035500
X013500Y032500
X014500Y032500
X015500Y032500
X016500Y032500
X017500Y032500
X018500Y032500
X019500Y032500
T04
X031750Y004000
X032750Y004000
X032750Y005000
X031750Y005000
T05
X003250Y002500
X003250Y003500
X003250Y004500
X003250Y005500
X003250Y006500
X003250Y007500
X003250Y008500
X003250Y009500
X003250Y010500
X003250Y011500
X003250Y012500
X003250Y013500
X003250Y014500
X003250Y015500
X003250Y016500
X003250Y017500
X003250Y018500
X003250Y019500
X003250Y020500
X003250Y021500
X003250Y022500
X003250Y023500
X003250Y024500
X003250Y025500
X003250Y026500
X003250Y027500
X003250Y028500
X003250Y029500
X003250Y030500
X003250Y031500
X003250Y032500
X003250Y033500
X005250Y033500
X005250Y032500
X005250Y031500
X005250Y030500
X005250Y029500
X005250Y028500
X005250Y027500
X005250Y026500
X005250Y025500
X005250Y024500
X005250Y023500
X005250Y022500
X005250Y021500
X005250Y020500
X005250Y019500
X005250Y018500
X005250Y017500
X005250Y016500
X005250Y015500
X005250Y014500
X005250Y013500
X005250Y012500
X005250Y011500
X005250Y010500
X005250Y009500
X005250Y008500
X005250Y007500
X005250Y006500
X005250Y005500
X005250Y004500
X005250Y003500
X005250Y002500
T06
X002250Y000500
X002250Y035500
M30
